<svg aria-hidden="true" style="position: absolute; width: 0; height: 0; overflow: hidden;" version="1.1" xmlns="http://www.w3.org/2000/svg" xmlns:xlink="http://www.w3.org/1999/xlink">
<defs>
<symbol id="icon-logo-2" viewBox="0 0 39 32">
<path fill="#c3c3c3" style="fill: var(--color1, #c3c3c3)" d="M6.388 12.802c-1.030-4.459 14.034-15.138 11.010-3.608 14.878-3.376-2.857 11.488 12.765 12.387 2.86 6.655-15.875 13.352-18.309 0.931-4.981-0.826-8.386-6.407-5.466-9.71z"></path>
<path fill="#799099" style="fill: var(--color2, #799099)" d="M34.040 17.096c1.395 4.955-5.152 13.213-5.152 1.321-13.569 6.771-3.828-11.35-12.412-8.53-4.122-10.24 5.734-7.248 10.477-7.248 2.233-2.643 13.463 11.484 7.088 14.457z"></path>
<path fill="#000" style="fill: var(--color3, #000)" d="M9.381 18.163c-0.241 0-0.478-0.035-0.711-0.104s-0.424-0.168-0.573-0.298c-0.145-0.129-0.217-0.277-0.217-0.443v-0.741h0.119c0.075 0.461 0.219 0.796 0.435 1.004 0.215 0.203 0.511 0.305 0.889 0.305 0.237 0 0.439-0.062 0.606-0.187 0.171-0.125 0.257-0.298 0.257-0.519 0-0.194-0.057-0.362-0.171-0.505s-0.298-0.293-0.553-0.45l-0.81-0.505c-0.281-0.175-0.481-0.353-0.599-0.533-0.114-0.18-0.171-0.399-0.171-0.658 0-0.355 0.116-0.639 0.349-0.851 0.237-0.217 0.546-0.325 0.928-0.325 0.224 0 0.446 0.035 0.665 0.104 0.219 0.065 0.399 0.162 0.54 0.291 0.145 0.125 0.217 0.27 0.217 0.436v0.741h-0.118c-0.075-0.461-0.217-0.791-0.428-0.99-0.206-0.203-0.498-0.305-0.876-0.305-0.202 0-0.38 0.065-0.533 0.194s-0.23 0.298-0.23 0.505c0 0.189 0.055 0.346 0.165 0.471 0.114 0.125 0.303 0.27 0.566 0.436l0.81 0.505c0.298 0.189 0.509 0.365 0.632 0.526s0.184 0.367 0.184 0.616c0 0.388-0.123 0.699-0.369 0.934-0.246 0.231-0.579 0.346-1.001 0.346zM11.858 14.377c-0.101 0-0.189-0.044-0.263-0.132-0.070-0.088-0.105-0.191-0.105-0.311 0-0.097 0.026-0.173 0.079-0.228 0.057-0.055 0.132-0.083 0.224-0.083 0.101 0 0.187 0.044 0.257 0.132 0.075 0.088 0.112 0.191 0.112 0.311 0 0.097-0.029 0.173-0.086 0.228-0.053 0.055-0.125 0.083-0.217 0.083zM11.607 15.623c0-0.235-0.031-0.408-0.092-0.519-0.061-0.115-0.184-0.173-0.369-0.173h-0.132v-0.138h0.593c0.162 0 0.283 0.023 0.362 0.069 0.083 0.042 0.143 0.12 0.178 0.235s0.053 0.291 0.053 0.526v2.423h-0.593v-2.423zM14.044 18.115c-0.246 0-0.439-0.074-0.579-0.221s-0.211-0.374-0.211-0.678v-2.146h-0.461v-0.277h0.461v-0.623l0.329-0.415h0.263v1.038h0.79v0.277h-0.79v2.146c0 0.415 0.154 0.623 0.461 0.623 0.105 0 0.193-0.012 0.263-0.035 0.075-0.023 0.151-0.058 0.23-0.104l0.066 0.138c-0.101 0.078-0.213 0.145-0.336 0.201-0.123 0.051-0.285 0.076-0.487 0.076zM16.558 18.115c-0.298 0-0.551-0.074-0.757-0.221-0.206-0.152-0.362-0.355-0.467-0.609-0.105-0.258-0.158-0.547-0.158-0.865 0-0.314 0.053-0.6 0.158-0.858s0.257-0.461 0.454-0.609c0.202-0.152 0.437-0.228 0.704-0.228 0.443 0 0.772 0.132 0.988 0.395 0.219 0.258 0.329 0.634 0.329 1.128l-0.013 0.277h-1.995c0 0.388 0.079 0.704 0.237 0.948s0.375 0.367 0.652 0.367c0.206 0 0.38-0.046 0.52-0.138 0.145-0.092 0.279-0.231 0.402-0.415l0.132 0.104c-0.145 0.254-0.314 0.438-0.507 0.554s-0.419 0.173-0.678 0.173zM17.184 16.246c0-0.406-0.057-0.715-0.171-0.928s-0.288-0.318-0.52-0.318c-0.132 0-0.25 0.055-0.355 0.166-0.105 0.106-0.189 0.254-0.25 0.443-0.057 0.189-0.086 0.401-0.086 0.637h1.383zM18.202 14.287c-0.088-0.268-0.182-0.45-0.283-0.547-0.097-0.102-0.244-0.162-0.441-0.18v-0.138c0.022 0 0.055-0.002 0.099-0.007 0.040-0.005 0.081-0.007 0.125-0.007 0.241 0 0.459 0.058 0.652 0.173 0.198 0.115 0.355 0.351 0.474 0.706l0.882 2.672 0.704-2.194-0.158-0.478c-0.088-0.268-0.182-0.45-0.283-0.547-0.097-0.102-0.244-0.162-0.441-0.18v-0.138c0.022 0 0.053-0.002 0.092-0.007 0.044-0.005 0.088-0.007 0.132-0.007 0.241 0 0.459 0.058 0.652 0.173 0.198 0.115 0.355 0.351 0.474 0.706l0.882 2.672 1.126-3.482h0.283l-1.508 4.637h-0.132l-0.974-2.914-0.948 2.914h-0.132l-1.277-3.828zM24.744 18.115c-0.298 0-0.557-0.074-0.777-0.221-0.219-0.152-0.386-0.358-0.5-0.616s-0.171-0.544-0.171-0.858 0.057-0.6 0.171-0.858c0.114-0.258 0.281-0.461 0.5-0.609 0.22-0.152 0.478-0.228 0.777-0.228s0.557 0.076 0.777 0.228c0.22 0.148 0.386 0.351 0.5 0.609s0.171 0.545 0.171 0.858-0.057 0.6-0.171 0.858c-0.114 0.258-0.281 0.464-0.5 0.616-0.219 0.148-0.478 0.221-0.777 0.221zM24.744 17.838c0.162 0 0.305-0.062 0.428-0.187 0.127-0.125 0.224-0.295 0.29-0.512 0.070-0.217 0.105-0.457 0.105-0.72s-0.035-0.503-0.105-0.72c-0.066-0.217-0.162-0.388-0.29-0.512-0.123-0.125-0.265-0.187-0.428-0.187s-0.307 0.062-0.435 0.187c-0.123 0.125-0.219 0.295-0.29 0.512-0.066 0.217-0.099 0.457-0.099 0.72s0.033 0.503 0.099 0.72c0.070 0.217 0.167 0.388 0.29 0.512 0.127 0.125 0.272 0.187 0.435 0.187zM27.017 15.623c0-0.235-0.031-0.408-0.092-0.519-0.061-0.115-0.184-0.173-0.369-0.173h-0.066v-0.138h0.527c0.167 0 0.292 0.025 0.375 0.076 0.088 0.046 0.149 0.125 0.184 0.235h0.033c0.079-0.106 0.184-0.196 0.316-0.27 0.136-0.074 0.294-0.111 0.474-0.111 0.176 0 0.308 0.035 0.395 0.104 0.074 0.060 0.151 0.164 0.23 0.311l-0.263 0.208c-0.048-0.069-0.118-0.12-0.211-0.152-0.092-0.037-0.197-0.055-0.316-0.055-0.132 0-0.252 0.032-0.362 0.097-0.11 0.060-0.198 0.143-0.263 0.249v2.561h-0.593v-2.423zM30.411 16.488l-0.573-1.004c-0.184-0.337-0.41-0.521-0.678-0.554v-0.138h0.56c0.145 0 0.281 0.048 0.408 0.145s0.239 0.233 0.336 0.408l0.408 0.727 0.856-1.28h0.329l-1.053 1.557 0.573 1.004c0.18 0.332 0.417 0.517 0.711 0.554v0.138h-0.593c-0.145 0-0.281-0.048-0.408-0.145s-0.239-0.233-0.336-0.408l-0.408-0.727-0.856 1.28h-0.329l1.053-1.557z"></path>
</symbol>
</defs>
</svg>
