<svg width="137" height="113" viewBox="0 0 137 113" fill="none" xmlns="http://www.w3.org/2000/svg">
<path d="M22.5573 45.2056C18.9183 29.459 72.1138 -8.25142 61.4365 32.4649C113.976 20.5447 51.3484 73.0314 106.514 76.2055C116.614 99.7061 50.4562 123.355 41.8602 79.4944C24.2718 76.5783 12.2469 56.8698 22.5573 45.2056Z" fill="#C3C3C3"/>
<path d="M120.203 60.3688C125.128 77.865 102.009 107.026 102.009 65.0345C54.0952 88.9457 88.4912 24.9536 58.1783 34.9121C43.6225 -1.24679 78.4268 9.31707 95.1743 9.31707C103.059 -0.0142814 142.716 49.871 120.203 60.3688Z" fill="#799099"/>
<path d="M33.1258 64.1383C32.2733 64.1383 31.4364 64.0161 30.615 63.7717C29.7935 63.5273 29.1193 63.177 28.5923 62.7207C28.0809 62.2644 27.8251 61.743 27.8251 61.1564V58.5412H28.2436C28.5071 60.1706 29.0185 61.352 29.778 62.0852C30.5375 62.8021 31.5837 63.1606 32.9166 63.1606C33.7535 63.1606 34.4665 62.9407 35.0554 62.5007C35.6599 62.0608 35.9621 61.4497 35.9621 60.6676C35.9621 59.9832 35.7606 59.3885 35.3576 58.8833C34.9547 58.3782 34.3037 57.8487 33.4048 57.2946L30.5452 55.5104C29.5532 54.8912 28.8481 54.2639 28.4296 53.6284C28.0266 52.9929 27.8251 52.2189 27.8251 51.3064C27.8251 50.0518 28.2359 49.0497 29.0573 48.3001C29.8942 47.5343 30.9869 47.1514 32.3353 47.1514C33.1258 47.1514 33.9085 47.2736 34.6834 47.518C35.4584 47.7461 36.0939 48.0883 36.5898 48.5445C37.1013 48.9845 37.357 49.4978 37.357 50.0844V52.6996H36.9385C36.6751 51.0701 36.1713 49.9052 35.4274 49.2045C34.699 48.4875 33.6682 48.129 32.3353 48.129C31.6224 48.129 30.9946 48.3571 30.4522 48.8134C29.9098 49.2697 29.6385 49.8644 29.6385 50.5976C29.6385 51.2657 29.8322 51.8197 30.2197 52.2597C30.6227 52.6996 31.2892 53.2129 32.2191 53.7995L35.0787 55.5837C36.1326 56.2518 36.8765 56.871 37.3105 57.4413C37.7445 58.0116 37.9615 58.7367 37.9615 59.6166C37.9615 60.9853 37.5275 62.0852 36.6596 62.9162C35.7916 63.7309 34.6137 64.1383 33.1258 64.1383ZM41.8719 50.7687C41.5155 50.7687 41.2055 50.614 40.942 50.3043C40.694 49.9947 40.57 49.6281 40.57 49.2045C40.57 48.8623 40.663 48.5934 40.849 48.3979C41.0505 48.2024 41.314 48.1046 41.6395 48.1046C41.9959 48.1046 42.2981 48.2594 42.5462 48.569C42.8096 48.8786 42.9414 49.2452 42.9414 49.6689C42.9414 50.011 42.8407 50.2799 42.6391 50.4754C42.4532 50.671 42.1974 50.7687 41.8719 50.7687ZM40.9885 55.1682C40.9885 54.3372 40.88 53.7262 40.663 53.3351C40.4461 52.9277 40.0121 52.7241 39.3611 52.7241H38.8961V52.2352H40.9885C41.562 52.2352 41.9882 52.3167 42.2672 52.4796C42.5617 52.6263 42.7709 52.9033 42.8949 53.3107C43.0188 53.718 43.0809 54.3372 43.0809 55.1682V63.7228H40.9885V55.1682ZM49.5926 63.9672C48.7247 63.9672 48.0427 63.7065 47.5467 63.1851C47.0508 62.6637 46.8028 61.8652 46.8028 60.7898V53.2129H45.1754V52.2352H46.8028V50.0355L47.9652 48.569H48.8952V52.2352H51.685V53.2129H48.8952V60.7898C48.8952 62.2563 49.4376 62.9895 50.5225 62.9895C50.8945 62.9895 51.2045 62.9488 51.4525 62.8673C51.7159 62.7859 51.9872 62.6637 52.2662 62.5007L52.4987 62.9895C52.1422 63.2665 51.747 63.5028 51.313 63.6983C50.879 63.8776 50.3056 63.9672 49.5926 63.9672ZM58.471 63.9672C57.4171 63.9672 56.5259 63.7065 55.7975 63.1851C55.069 62.6474 54.5188 61.9304 54.1468 61.0342C53.7748 60.1217 53.5889 59.1033 53.5889 57.979C53.5889 56.871 53.7748 55.8607 54.1468 54.9482C54.5188 54.0358 55.0535 53.3188 55.751 52.7974C56.4639 52.2597 57.2931 51.9908 58.2385 51.9908C59.8039 51.9908 60.9663 52.4552 61.7258 53.384C62.5007 54.2964 62.8883 55.6245 62.8883 57.368L62.8418 58.3456H55.7975C55.7975 59.7144 56.0764 60.8306 56.6344 61.6941C57.1924 62.5577 57.9596 62.9895 58.936 62.9895C59.6644 62.9895 60.2766 62.8266 60.7726 62.5007C61.2841 62.1748 61.7568 61.686 62.1908 61.0342L62.6558 61.4008C62.1443 62.2971 61.5476 62.9488 60.8656 63.3562C60.1836 63.7636 59.3855 63.9672 58.471 63.9672ZM60.6796 57.368C60.6796 55.934 60.4781 54.8424 60.0752 54.0928C59.6722 53.3432 59.06 52.9685 58.2385 52.9685C57.7736 52.9685 57.3551 53.164 56.9831 53.5551C56.6112 53.9298 56.3166 54.4513 56.0997 55.1193C55.8982 55.7874 55.7975 56.537 55.7975 57.368H60.6796ZM64.2775 50.451C63.9675 49.5059 63.6343 48.8623 63.2778 48.5201C62.9368 48.1616 62.4176 47.9498 61.7202 47.8846V47.3958C61.7976 47.3958 61.9139 47.3877 62.0689 47.3713C62.2084 47.355 62.3556 47.3469 62.5106 47.3469C63.363 47.3469 64.1302 47.5506 64.8122 47.9579C65.5097 48.3653 66.0676 49.1963 66.4861 50.451L69.6014 59.8854L72.089 52.1375L71.531 50.451C71.221 49.5059 70.8878 48.8623 70.5314 48.5201C70.1904 48.1616 69.6712 47.9498 68.9737 47.8846V47.3958C69.0512 47.3958 69.1597 47.3877 69.2992 47.3713C69.4541 47.355 69.6091 47.3469 69.7642 47.3469C70.6165 47.3469 71.3837 47.5506 72.0658 47.9579C72.7632 48.3653 73.3212 49.1963 73.7396 50.451L76.8549 59.8854L80.8304 47.5913H81.8301L76.5062 63.9672H76.0412L72.6005 53.6773L69.2527 63.9672H68.7877L64.2775 50.451ZM87.3778 63.9672C86.3241 63.9672 85.41 63.7065 84.6345 63.1851C83.8598 62.6474 83.2711 61.9222 82.8679 61.0098C82.465 60.0973 82.2635 59.087 82.2635 57.979C82.2635 56.871 82.465 55.8607 82.8679 54.9482C83.2711 54.0358 83.8598 53.3188 84.6345 52.7974C85.41 52.2597 86.3241 51.9908 87.3778 51.9908C88.4323 51.9908 89.3464 52.2597 90.1211 52.7974C90.8966 53.3188 91.4853 54.0358 91.888 54.9482C92.2915 55.8607 92.4925 56.871 92.4925 57.979C92.4925 59.087 92.2915 60.0973 91.888 61.0098C91.4853 61.9222 90.8966 62.6474 90.1211 63.1851C89.3464 63.7065 88.4323 63.9672 87.3778 63.9672ZM87.3778 62.9895C87.9515 62.9895 88.4555 62.7696 88.8889 62.3296C89.339 61.8897 89.6794 61.2867 89.9119 60.5209C90.1601 59.7551 90.2838 58.9078 90.2838 57.979C90.2838 57.0502 90.1601 56.2029 89.9119 55.4371C89.6794 54.6713 89.339 54.0683 88.8889 53.6284C88.4555 53.1884 87.9515 52.9685 87.3778 52.9685C86.8049 52.9685 86.2934 53.1884 85.8434 53.6284C85.41 54.0683 85.0687 54.6713 84.8205 55.4371C84.588 56.2029 84.4717 57.0502 84.4717 57.979C84.4717 58.9078 84.588 59.7551 84.8205 60.5209C85.0687 61.2867 85.41 61.8897 85.8434 62.3296C86.2934 62.7696 86.8049 62.9895 87.3778 62.9895ZM95.4052 55.1682C95.4052 54.3372 95.2964 53.7262 95.0797 53.3351C94.863 52.9277 94.4287 52.7241 93.7778 52.7241H93.5453V52.2352H95.4052C95.9938 52.2352 96.4356 52.3249 96.7303 52.5041C97.04 52.6671 97.2576 52.944 97.3813 53.3351H97.4975C97.7765 52.9604 98.1485 52.6426 98.6134 52.3819C99.0942 52.1211 99.6522 51.9908 100.287 51.9908C100.908 51.9908 101.373 52.113 101.682 52.3574C101.945 52.5693 102.217 52.9359 102.496 53.4573L101.566 54.1906C101.396 53.9461 101.148 53.7669 100.822 53.6528C100.497 53.5225 100.125 53.4573 99.7061 53.4573C99.2412 53.4573 98.8152 53.5714 98.4275 53.7995C98.0397 54.0113 97.73 54.3046 97.4975 54.6794V63.7228H95.4052V55.1682ZM107.389 58.2234L105.366 54.6794C104.715 53.4899 103.917 52.8381 102.972 52.7241V52.2352H104.948C105.459 52.2352 105.94 52.4063 106.389 52.7485C106.838 53.0907 107.234 53.5714 107.575 54.1906L109.016 56.7569L112.039 52.2352H113.201L109.481 57.7346L111.504 61.2786C112.139 62.4518 112.976 63.1036 114.015 63.234V63.7228H111.922C111.411 63.7228 110.93 63.5517 110.481 63.2095C110.032 62.8673 109.637 62.3866 109.295 61.7675L107.854 59.2011L104.832 63.7228H103.669L107.389 58.2234Z" fill="black"/>
</svg>
